PathFileType	4	(X/Y/Z)	C:/Users/beibeiliu/ov580/test_trc\sequence.3_training_dense_right.trc
DataRate	CameraRate	NumFrames	NumMarkers	Units	OrigDataRate	OrigDataStartFrame	OrigNumFrames
120	120	18	19	mm	120	120	319
Frame#	Time	ThumbCMC			ThumbMCP			ThumbIP			ThumbTip			IndexMCP			IndexPIP			IndexTip			MiddleMCP			MiddlePIP			MiddleTip			RingMCP			RingPIP			RingTip			PinkyMCP			PinkyPIP			PinkyTip			BackHand1			BackHand2			BackHand3	
		X0	Y0	Z0	X1	Y1	Z1	X2	Y2	Z2	X3	Y3	Z3	X4	Y4	Z4	X5	Y5	Z5	X6	Y6	Z6	X7	Y7	Z7	X8	Y8	Z8	X9	Y9	Z9	X10	Y10	Z10	X11	Y11	Z11	X12	Y12	Z12	X13	Y13	Z13	X14	Y14	Z14	X15	Y15	Z15	X16	Y16	Z16	X17	Y17	Z17	X18	Y18	Z18	
119	0.991667	218.871	-63.6866	14.6401	191.36	-58.8398	-2.01442	180.183	-41.9153	-12.659	178.937	-21.3163	-26.3329	168.232	-27.3252	1.66409	161.882	-37.1958	-24.7639	183.799	-53.0449	-14.7216	170.451	-13.3843	-14.2101	164.235	-27.5902	-38.9503	188.01	-46.7705	-40.1918	189.959	-16.8181	-29.2607	199.165	-40.8596	-39.5395	210.615	-43.2908	-18.2498	212.911	-15.5019	-36.242	215.386	-42.5388	-31.6793	222.22	-41.9357	-8.35951	225.131	-13.3941	7.69677	245.236	-22.2548	18.3966	220.361	-35.1519	27.2955	
120	1	215.884	-64.6486	14.816	186.454	-55.7292	-2.60362	178.446	-36.9021	-14.355	179.372	-17.3294	-27.1619	166.784	-20.4428	-4.93438	159.867	-33.0925	-26.6926	181.987	-50.247	-19.9953	170.114	-11.0077	-15.7101	165.556	-20.5132	-40.7061	187.284	-46.6758	-40.3727	191.731	-13.1681	-31.0965	196.776	-36.0514	-42.6648	212.16	-41.5073	-19.8847	214.165	-15.1389	-36.2506	214.903	-39.7932	-34.4198	220.878	-40.1061	-6.73593	221.341	-11.6805	7.32782	247.506	-25.3723	20.3921	219.617	-32.8265	27.9508	
121	1.00833	211.498	-61.7658	16.6772	187.052	-57.0131	-1.30998	176.993	-32.4841	-14.3579	180.797	-15.1526	-29.45	170.413	-16.1283	-5.62164	159.387	-29.9945	-29.4779	179.941	-50.7415	-23.8635	178.704	-5.05628	-18.6677	166.94	-18.0242	-43.2125	189.73	-45.3264	-37.7846	195.863	-9.51797	-35.111	198.091	-36.1396	-42.5643	208.27	-40.7417	-17.1032	214.566	-18.2704	-38.1483	211.58	-40.8409	-32.5949	219.777	-40.3726	-5.88961	224.917	-10.0799	5.17149	247.363	-24.0664	15.4702	219.85	-28.884	23.2358	
122	1.01667	207.626	-58.0588	18.6765	182.418	-51.9455	0.492009	176.158	-31.3052	-13.9314	185.628	-13.1666	-28.9872	166.792	-11.9205	-8.89664	158.34	-25.2736	-32.7733	171.536	-47.6309	-30.322	179.151	-2.22164	-20.6443	170.645	-15.0678	-46.2873	186.239	-44.3908	-37.6324	196.083	-8.14095	-38.7926	194.847	-34.7777	-44.2934	209.19	-40.214	-20.066	211.505	-19.5673	-38.5656	209.845	-39.4781	-33.8639	220.491	-39.0131	-6.68366	226.96	-6.03612	1.86748	250.485	-24.2253	14.9212	219.537	-29.3697	27.0894	
123	1.025	207.029	-55.9013	19.6231	179.238	-44.9602	0.97628	176.407	-29.2456	-13.5018	183.043	-11.9067	-36.1013	168.901	-6.42101	-10.6343	156.99	-17.6968	-33.5468	174.142	-45.8521	-30.7431	181.84	0.889948	-27.2092	170.933	-16.6628	-48.9112	183.143	-43.0529	-38.6298	195.769	-7.59702	-42.5316	192.527	-33.9109	-45.5977	206.289	-41.0368	-24.1635	217.083	-18.5968	-43.3453	211.606	-43.4807	-32.7826	217.19	-43.4492	-8.39412	230.904	-6.69722	-1.90357	249.397	-23.9442	14.4912	219.792	-26.2511	23.3433	
124	1.03333	205.956	-49.9027	17.313	181.308	-42.89	0.6781	175.289	-26.0073	-18.9347	188.08	-14.2132	-37.6909	171.689	-0.725385	-16.0868	160.679	-14.0918	-36.2937	169.783	-40.8691	-28.5999	180.436	3.82867	-30.3697	173.177	-10.7602	-51.9529	185.519	-40.7726	-38.6229	200.888	-8.28415	-45.5338	193.756	-33.5597	-50.0134	204.363	-40.9483	-23.6451	216.827	-24.7296	-47.3393	209.965	-44.7829	-35.0948	212.931	-44.5053	-12.1744	230.727	-9.35381	-5.36826	247.732	-27.1548	13.8244	219.145	-23.7059	21.6977	
125	1.04167	203.645	-48.3361	16.4619	178.376	-44.5158	-8.09407	174.531	-34.2631	-28.0629	185.869	-22.3035	-50.7997	176.675	1.90853	-15.9342	161.59	-9.42464	-36.2808	175.179	-35.986	-23.9183	190.645	8.59337	-33.0195	173.272	-9.63798	-51.1519	189.966	-31.1035	-31.114	200.676	-7.05525	-46.0525	195.326	-33.9549	-50.2692	203.203	-39.9115	-27.2732	217.923	-21.7502	-45.3452	207.455	-41.5313	-40.8717	210.422	-45.5522	-15.9983	236.444	-7.92801	-8.22284	249.573	-27.3057	8.77627	220.192	-21.2572	18.2942	
126	1.05	201.568	-46.9432	10.939	180.862	-44.6583	-13.4444	173.077	-33.2883	-34.6973	183.164	-23.8315	-54.9325	176.268	2.75098	-18.3605	167.522	-12.6467	-41.051	182.2	-33.6513	-26.8978	192.26	10.0495	-37.9874	181.028	-10.1735	-53.7806	195.624	-25.6348	-30.5304	206.146	-6.14898	-51.2738	195.933	-29.6011	-53.1502	208.368	-39.9829	-28.7516	221.979	-22.1901	-48.9669	211.469	-43.7523	-42.323	210.694	-44.9163	-16.709	234.832	-9.37161	-6.78942	251.388	-28.6046	8.62184	220.329	-19.2177	17.6299	
127	1.05833	198.678	-46.7247	7.96532	183.443	-40.3947	-19.7853	176.189	-32.8718	-39.1136	184.898	-19.9722	-60.6647	180.319	3.30117	-25.8328	167.326	-14.3182	-43.2982	183.428	-33.8433	-25.3003	192.786	8.86688	-37.933	186.055	-12.493	-55.4699	197.708	-22.6787	-27.5331	206.915	-4.80414	-49.5743	199.029	-31.6889	-54.8147	208.999	-39.7418	-32.6237	222.014	-24.0184	-53.4343	210.889	-43.0016	-41.8619	212.909	-46.1365	-18.0431	236.589	-10.743	-9.77596	247.464	-34.2846	11.0944	222.007	-24.3068	14.63	
128	1.06667	194.623	-49.8357	6.50212	182.01	-44.0864	-21.7508	177.928	-31.0337	-43.4267	187.203	-17.5904	-67.1788	178.5	2.99887	-27.7532	171.803	-11.2223	-48.2297	184.11	-33.1944	-31.1441	196.832	7.20588	-38.3639	184.575	-11.8069	-57.5478	197.496	-22.7467	-29.2639	207.846	-4.48641	-52.4111	198.669	-29.8384	-57.395	207.429	-38.5413	-31.9786	224.696	-24.999	-54.5301	210.371	-40.8099	-48.0976	209.942	-43.9779	-24.3601	235.899	-12.8127	-11.0888	248.147	-33.2211	9.2248	220.245	-26.4711	13.6605	
129	1.075	195.972	-46.867	2.94327	180.093	-41.0963	-24.3951	174.407	-31.3183	-45.9094	185.799	-21.4428	-68.655	181.024	3.03151	-34.2394	170.045	-13.8	-49.3443	184.472	-33.9942	-31.5018	195.707	9.48175	-43.4382	187.33	-10.7528	-61.9259	194.328	-24.9627	-32.8456	210.368	-6.45853	-53.0708	199.716	-27.8158	-62.4006	207.751	-41.4905	-35.5215	224.936	-22.7307	-52.3393	212.202	-46.3673	-48.3102	213.436	-49.5403	-24.7495	236.177	-15.971	-11.1679	244.837	-38.2552	9.00091	218.227	-24.7993	13.0947	
130	1.08333	197.738	-43.6471	6.22872	175.901	-36.8534	-23.1461	175.669	-27.4308	-45.2821	187.511	-24.0196	-66.6786	184.277	5.07176	-33.7867	169.295	-10.9736	-48.4827	185.128	-31.7053	-32.6464	202.341	8.88154	-50.3528	186.113	-8.81485	-64.0807	192.2	-26.9411	-41.7665	211.865	-9.88738	-58.5307	196.322	-31.2868	-61.8598	204.044	-42.7703	-35.8081	220.52	-27.7445	-56.4309	209.001	-46.2391	-53.2703	206.795	-51.2536	-25.4643	237.303	-16.3103	-14.7488	249.916	-38.033	1.75709	222.524	-22.286	7.5669	
131	1.09167	202.945	-31.6835	7.28644	179.046	-27.3641	-13.0407	174.194	-19.2385	-40.8078	184.879	-23.4938	-62.7893	193.112	11.0689	-34.2839	172.357	-1.20692	-48.9041	180.108	-21.3359	-26.6335	208.872	4.24877	-52.7865	183.449	-7.70218	-65.6858	189.792	-28.7232	-42.7112	211.388	-16.8606	-61.6164	188.989	-32.1427	-60.3899	200.418	-42.5705	-34.8828	215.637	-36.4343	-60.6992	197.593	-48.4515	-47.2615	199.763	-51.2477	-24.0698	241.686	-25.4396	-23.1338	251.852	-39.3282	-6.29789	232.003	-18.643	-0.0970976	
132	1.1	215.908	-21.0541	11.8743	196.411	-3.8755	-10.0794	192.775	-0.984885	-39.2579	195.192	-19.2204	-56.733	210.545	5.4451	-49.2295	183.188	5.62441	-54.2826	186.012	-6.62196	-22.469	208.525	-2.45965	-60.5287	175.975	-8.02546	-61.9828	176.93	-24.8126	-36.8195	200.128	-25.7906	-63.9701	178.016	-27.7038	-52.2093	193.776	-34.5375	-27.3379	201.184	-46.1652	-58.4949	183.507	-42.8877	-37.0654	195.964	-41.1185	-19.1688	241.225	-43.0013	-36.0831	247.68	-59.3427	-14.4039	244.557	-27.8089	-8.45769	
133	1.10833	236.056	-18.1358	0.463676	221.602	-0.819743	-24.1644	208.623	-2.02233	-42.1875	192.134	-18.8318	-51.873	215.52	0.827126	-63.587	191.536	13.2015	-57.6495	191.206	3.5341	-27.3453	198.467	-13.5772	-67.5121	178.374	2.69177	-57.098	181.661	-10.8231	-25.9593	186.014	-28.3752	-58.7379	172.11	-17.913	-38.4978	190.672	-29.5529	-20.2621	177.25	-41.8867	-47.3589	175.37	-30.447	-23.3345	194.628	-31.9099	-14.3165	221.672	-56.3255	-40.0771	233.329	-66.0914	-18.876	243.284	-40.4633	-23.2289	
134	1.11667	239.569	-27.2118	-12.5144	230.752	-4.4665	-32.5361	209.526	1.29469	-51.796	184.136	-12.5136	-48.136	208.368	-8.10544	-70.0822	196.889	17.507	-63.9995	202.036	15.5189	-31.2026	191.973	-9.89	-67.0705	179.46	11.9282	-49.5676	193.959	-2.54357	-20.5985	178.188	-16.6013	-52.2887	177.567	-1.48435	-30.9841	199.727	-21.24	-19.64	170.077	-28.7737	-39.0781	180.034	-13.1669	-18.6709	197.895	-25.4178	-12.2412	205.771	-58.8694	-36.5602	215.696	-69.3934	-12.1969	230.47	-53.6896	-29.2187	
135	1.125	238.375	-27.8566	-22.489	231.331	-3.18239	-42.6672	206.471	3.66517	-55.026	182.808	-4.10995	-43.8425	204.045	-5.49053	-72.5928	192.675	20.2858	-63.3761	203.143	20.9123	-34.5567	181.645	-2.52813	-63.6358	181.188	20.7816	-46.8634	197.037	10.084	-21.6696	172.966	-3.07151	-46.2491	184.381	7.64696	-24.7748	196.9	-12.9068	-16.4547	166.4	-14.1801	-31.7404	181.496	-3.00791	-12.9841	196.957	-22.0274	-10.0284	189.45	-50.1287	-35.2202	204.84	-65.4755	-11.9875	218.328	-49.8301	-34.5985	
136	1.13333	236.005	-26.4639	-22.7991	226.862	-5.18484	-44.6012	204.964	3.37336	-52.8886	181.326	1.41225	-43.049	196.19	-2.77103	-71.0127	196.983	26.9642	-65.2863	206.67	22.7312	-33.8137	179.103	2.86981	-62.4136	183.63	27.6245	-50.2445	198.214	15.0835	-23.1518	169.372	1.24507	-43.4919	183.003	14.6749	-25.1745	197.448	-9.94249	-16.2101	164.25	-3.82152	-30.3989	181.946	3.87272	-12.801	196.129	-17.0134	-13.4175	182.263	-44.5916	-34.075	195.065	-57.9441	-8.31375	211.011	-48.5312	-34.8758	
